{"title":"Alpha.House.2014.DVDRip.XviD.MP3-Insane098","uid":10123653,"size":1311486051,"categoryP":"video","categoryS":"movies","magnet":"?xt=urn:btih:d38dbec76f6f1db2b2a52992bb2720180a055364&amp;dn=Alpha.House.2014.DVDRip.XviD.MP3-Insane098&amp;tr=udp%3A%2F%2Ftracker.openbittorrent.com%3A80&amp;tr=udp%3A%2F%2Fopen.demonii.com%3A1337&amp;tr=udp%3A%2F%2Ftracker.coppersurfer.tk%3A6969&amp;tr=udp%3A%2F%2Fexodus.desync.com%3A6969","seeders":0,"leechers":1,"uploader":"098765432","files":-1,"time":1399681870,"description":"Plot:\nIn the dorm where the Alpha club is located in a battle of the sexes as the men are joined by a group of female students who are trying to take over their house., Slowly This is accompanied by a fair amount of booze and sex. &lt;a href=&quot;\nhttp://www.imdb.com/title/tt3307774&quot; rel=&quot;nofollow&quot; target=&quot;_NEW&quot;&gt;\nhttp://www.imdb.com/title/tt3307774&lt;/a&gt;\n\nMedia Info:\nGeneral\nComplete name :Alpha.House.2014.DVDRip.XviD.MP3-Insane098.avi\nFormat : AVI\nFormat/Info : Audio Video Interleave\nFormat profile : OpenDML\nFile size : 1.22 GiB\nDuration : 1h 24mn\nOverall bit rate : 2 060 Kbps\nWriting application : Lavf55.33.100\n\nVideo\nID : 0\nFormat : MPEG-4 Visual\nFormat profile : Advanced Simple@L5\nFormat settings, BVOP : 2\nFormat settings, QPel : No\nFormat settings, GMC : No warppoints\nFormat settings, Matrix : Default (MPEG)\nCodec ID : XVID\nCodec ID/Hint : XviD\nDuration : 1h 24mn\nBit rate : 1 852 Kbps\nWidth : 720 pixels\nHeight : 408 pixels\nDisplay aspect ratio : 16:9\nOriginal display aspect ratio : 16:9\nFrame rate : 25.000 fps\nColor space : YUV\nChroma subsampling : 4:2:0\nBit depth : 8 bits\nScan type : Progressive\nCompression mode : Lossy\nBits/(Pixel*Frame) : 0.252\nStream size : 1.10 GiB (90%)\nWriting library : XviD 1.2.1 (UTC 2008-12-04)\n\nAudio\nID : 1\nFormat : MPEG Audio\nFormat version : Version 1\nFormat profile : Layer 3\nCodec ID : 55\nCodec ID/Hint : MP3\nDuration : 1h 24mn\nBit rate mode : Constant\nBit rate : 192 Kbps\nChannel count : 2 channels\nSampling rate : 48.0 KHz\nCompression mode : Lossy\nStream size : 117 MiB (9%)\nAlignment : Aligned on interleaves\nInterleave, duration : 24 ms (0.60 video frame)\nInterleave, preload duration : 24 ms\n\nScreenshots: &lt;a href=&quot;\nhttp://i1186.photobucket.com/albums/z372/Insane098/Screenshots/frame0.jpg&quot; rel=&quot;nofollow&quot; target=&quot;_NEW&quot;&gt;\nhttp://i1186.photobucket.com/albums/z372/Insane098/Screenshots/frame0.jpg&lt;/a&gt; &lt;a href=&quot;\nhttp://i1186.photobucket.com/albums/z372/Insane098/Screenshots/frame1.jpg&quot; rel=&quot;nofollow&quot; target=&quot;_NEW&quot;&gt;\nhttp://i1186.photobucket.com/albums/z372/Insane098/Screenshots/frame1.jpg&lt;/a&gt; &lt;a href=&quot;\nhttp://i1186.photobucket.com/albums/z372/Insane098/Screenshots/frame2.jpg&quot; rel=&quot;nofollow&quot; target=&quot;_NEW&quot;&gt;\nhttp://i1186.photobucket.com/albums/z372/Insane098/Screenshots/frame2.jpg&lt;/a&gt; &lt;a href=&quot;\nhttp://i1186.photobucket.com/albums/z372/Insane098/Screenshots/frame3.jpg&quot; rel=&quot;nofollow&quot; target=&quot;_NEW&quot;&gt;\nhttp://i1186.photobucket.com/albums/z372/Insane098/Screenshots/frame3.jpg&lt;/a&gt; &lt;a href=&quot;\nhttp://i1186.photobucket.com/albums/z372/Insane098/Screenshots/frame4.jpg&quot; rel=&quot;nofollow&quot; target=&quot;_NEW&quot;&gt;\nhttp://i1186.photobucket.com/albums/z372/Insane098/Screenshots/frame4.jpg&lt;/a&gt; &lt;a href=&quot;\nhttp://i1186.photobucket.com/albums/z372/Insane098/Screenshots/frame5.jpg&quot; rel=&quot;nofollow&quot; target=&quot;_NEW&quot;&gt;\nhttp://i1186.photobucket.com/albums/z372/Insane098/Screenshots/frame5.jpg&lt;/a&gt; &lt;a href=&quot;\nhttp://i1186.photobucket.com/albums/z372/Insane098/Screenshots/frame6.jpg&quot; rel=&quot;nofollow&quot; target=&quot;_NEW&quot;&gt;\nhttp://i1186.photobucket.com/albums/z372/Insane098/Screenshots/frame6.jpg&lt;/a&gt; &lt;a href=&quot;\nhttp://i1186.photobucket.com/albums/z372/Insane098/Screenshots/frame7.jpg&quot; rel=&quot;nofollow&quot; target=&quot;_NEW&quot;&gt;\nhttp://i1186.photobucket.com/albums/z372/Insane098/Screenshots/frame7.jpg&lt;/a&gt; &lt;a href=&quot;\nhttp://i1186.photobucket.com/albums/z372/Insane098/Screenshots/frame8.jpg&quot; rel=&quot;nofollow&quot; target=&quot;_NEW&quot;&gt;\nhttp://i1186.photobucket.com/albums/z372/Insane098/Screenshots/frame8.jpg&lt;/a&gt; &lt;a href=&quot;\nhttp://i1186.photobucket.com/albums/z372/Insane098/Screenshots/frame9.jpg&quot; rel=&quot;nofollow&quot; target=&quot;_NEW&quot;&gt;\nhttp://i1186.photobucket.com/albums/z372/Insane098/Screenshots/frame9.jpg&lt;/a&gt;","torrent":{"xt":"urn:btih:d38dbec76f6f1db2b2a52992bb2720180a055364","amp;dn":"Alpha.House.2014.DVDRip.XviD.MP3-Insane098","amp;tr":["udp%3A%2F%2Ftracker.openbittorrent.com%3A80","udp%3A%2F%2Fopen.demonii.com%3A1337","udp%3A%2F%2Ftracker.coppersurfer.tk%3A6969","udp%3A%2F%2Fexodus.desync.com%3A6969"],"infoHash":"d38dbec76f6f1db2b2a52992bb2720180a055364","infoHashBuffer":{"type":"Buffer","data":[211,141,190,199,111,111,29,178,178,165,41,146,187,39,32,24,10,5,83,100]},"announce":[],"urlList":[]}}